<svg xmlns="http://www.w3.org/2000/svg" viewBox="0 0 200 200" role="img" aria-label="Scenic landscape"><defs><linearGradient id="p144sky" x1="0" y1="0" x2="0" y2="1"><stop offset="0" stop-color="#f4e2b8"/><stop offset="0.5" stop-color="#cdd08a"/><stop offset="1" stop-color="#5c6f3a"/></linearGradient><linearGradient id="p144wat" x1="0" y1="0" x2="0" y2="1"><stop offset="0" stop-color="#9aae6f"/><stop offset="1" stop-color="#3d4a24"/></linearGradient><linearGradient id="p144rid" x1="0" y1="0" x2="0" y2="1"><stop offset="0" stop-color="#5c6f3a"/><stop offset="1" stop-color="#3a4a24"/></linearGradient><radialGradient id="p144sun" cx="0.5" cy="0.5" r="0.5"><stop offset="0" stop-color="#f6ffd8"/><stop offset="0.6" stop-color="#f6ffd8" stop-opacity="0.85"/><stop offset="1" stop-color="#f6ffd8" stop-opacity="0"/></radialGradient></defs><rect width="200" height="200" fill="url(#p144sky)"/><g fill="#f6ffd8" opacity="0.7"><circle cx="127" cy="6" r="1.3"/><circle cx="140" cy="19" r="0.8"/><circle cx="0" cy="80" r="0.8"/><circle cx="141" cy="2" r="1.3"/><circle cx="150" cy="34" r="1.3"/><circle cx="185" cy="57" r="0.8"/><circle cx="138" cy="73" r="0.8"/><circle cx="30" cy="74" r="1.3"/><circle cx="22" cy="15" r="0.8"/><circle cx="133" cy="15" r="0.8"/><circle cx="55" cy="23" r="0.8"/><circle cx="41" cy="60" r="0.8"/><circle cx="124" cy="42" r="0.8"/><circle cx="110" cy="77" r="0.8"/><circle cx="68" cy="39" r="1.3"/><circle cx="157" cy="55" r="0.8"/><circle cx="160" cy="86" r="0.8"/><circle cx="42" cy="64" r="0.8"/></g><circle cx="90" cy="71" r="30" fill="#f6ffd8" opacity="0.92"/><circle cx="102" cy="65" r="30" fill="url(#p144sky)" opacity="0.9"/><g fill="#cdd08a" opacity="0.4"><ellipse cx="106" cy="34" rx="29" ry="7"/><ellipse cx="114" cy="23" rx="16" ry="7"/><ellipse cx="144" cy="51" rx="25" ry="4"/><ellipse cx="54" cy="43" rx="29" ry="6"/></g><path d="M0 120 L33 112 L73 109 L127 111 L172 122 L200 120 L200 200 L0 200 Z" fill="url(#p144rid)" opacity="0.65"/><path d="M0 142 L36 149 L74 151 L130 154 L176 152 L200 136 L200 200 L0 200 Z" fill="#5c6f3a"/><path d="M0 164 L46 155 L98 164 L142 156 L197 150 L200 164 L200 200 L0 200 Z" fill="#3a4a24"/></svg>
