<svg xmlns="http://www.w3.org/2000/svg" viewBox="0 0 200 200" role="img" aria-label="Scenic landscape"><defs><linearGradient id="p36sky" x1="0" y1="0" x2="0" y2="1"><stop offset="0" stop-color="#d7efd8"/><stop offset="0.5" stop-color="#8fd0ae"/><stop offset="1" stop-color="#3f6d6a"/></linearGradient><linearGradient id="p36wat" x1="0" y1="0" x2="0" y2="1"><stop offset="0" stop-color="#6fae9a"/><stop offset="1" stop-color="#274a4a"/></linearGradient><linearGradient id="p36rid" x1="0" y1="0" x2="0" y2="1"><stop offset="0" stop-color="#3f6d63"/><stop offset="1" stop-color="#274941"/></linearGradient><radialGradient id="p36sun" cx="0.5" cy="0.5" r="0.5"><stop offset="0" stop-color="#e8fff2"/><stop offset="0.6" stop-color="#e8fff2" stop-opacity="0.85"/><stop offset="1" stop-color="#e8fff2" stop-opacity="0"/></radialGradient></defs><rect width="200" height="200" fill="url(#p36sky)"/><circle cx="139" cy="77" r="34" fill="url(#p36sun)"/><circle cx="139" cy="77" r="22" fill="#e8fff2"/><g fill="#8fd0ae" opacity="0.4"><ellipse cx="108" cy="47" rx="17" ry="6"/><ellipse cx="100" cy="44" rx="32" ry="4"/><ellipse cx="96" cy="39" rx="31" ry="8"/></g><path d="M0 96 L44 100 L70 106 L108 82 L139 105 L169 93 L200 95 L200 128 L0 128 Z" fill="url(#p36rid)" opacity="0.7"/><path d="M0 116 L34 136 L73 110 L106 117 L149 100 L196 117 L200 130 L200 132 L0 132 Z" fill="#274941"/><rect x="0" y="130" width="200" height="70" fill="url(#p36wat)"/><g stroke="#e8fff2" stroke-width="1.3" opacity="0.5" stroke-linecap="round"><path d="M20 146 h30 M96 156 h40 M40 168 h24 M120 176 h40"/></g><g stroke="#274941" stroke-width="1.4" fill="none" opacity="0.7" stroke-linecap="round"><path d="M48 50 q4 -4 8 0 q4 -4 8 0"/><path d="M68 58 q3 -3 6 0 q3 -3 6 0"/></g></svg>
