<svg xmlns="http://www.w3.org/2000/svg" viewBox="0 0 200 200" role="img" aria-label="Scenic landscape"><defs><linearGradient id="p136sky" x1="0" y1="0" x2="0" y2="1"><stop offset="0" stop-color="#cfe8dd"/><stop offset="0.5" stop-color="#8fbfb0"/><stop offset="1" stop-color="#3f5f6a"/></linearGradient><linearGradient id="p136wat" x1="0" y1="0" x2="0" y2="1"><stop offset="0" stop-color="#6fa39a"/><stop offset="1" stop-color="#274450"/></linearGradient><linearGradient id="p136rid" x1="0" y1="0" x2="0" y2="1"><stop offset="0" stop-color="#3f6763"/><stop offset="1" stop-color="#274441"/></linearGradient><radialGradient id="p136sun" cx="0.5" cy="0.5" r="0.5"><stop offset="0" stop-color="#e8fbf4"/><stop offset="0.6" stop-color="#e8fbf4" stop-opacity="0.85"/><stop offset="1" stop-color="#e8fbf4" stop-opacity="0"/></radialGradient></defs><rect width="200" height="200" fill="url(#p136sky)"/><g fill="#8fbfb0" opacity="0.4"><ellipse cx="62" cy="25" rx="22" ry="4"/><ellipse cx="22" cy="58" rx="32" ry="4"/><ellipse cx="104" cy="58" rx="29" ry="7"/></g><path d="M0 120 L47 113 L76 127 L116 117 L146 124 L200 129 L200 200 L0 200 Z" fill="url(#p136rid)" opacity="0.65"/><path d="M0 142 L27 142 L60 131 L116 138 L154 145 L190 136 L200 138 L200 200 L0 200 Z" fill="#3f6763"/><path d="M0 164 L50 157 L95 165 L134 160 L186 166 L200 169 L200 200 L0 200 Z" fill="#274441"/><g stroke="#274441" stroke-width="1.4" fill="none" opacity="0.7" stroke-linecap="round"><path d="M80 59 q4 -4 8 0 q4 -4 8 0"/><path d="M100 67 q3 -3 6 0 q3 -3 6 0"/></g></svg>
