<svg xmlns="http://www.w3.org/2000/svg" viewBox="0 0 200 200" role="img" aria-label="Gray cat"><defs><radialGradient id="p936bg" cx="0.5" cy="0.42" r="0.75"><stop offset="0" stop-color="#e56b6f"/><stop offset="1" stop-color="#6d2e46"/></radialGradient></defs><rect width="200" height="200" fill="url(#p936bg)"/><circle cx="100" cy="102" r="76" fill="#000" opacity="0.14"/><path d="M52 84 L60 38 L92 66 Z" fill="#8d93a3"/><path d="M148 84 L140 38 L108 66 Z" fill="#8d93a3"/><path d="M60 48 L66 60 L80 62 Z" fill="#e8a8b8"/><path d="M140 48 L134 60 L120 62 Z" fill="#e8a8b8"/><circle cx="100" cy="108" r="52" fill="#8d93a3"/><circle cx="80" cy="100" r="7" fill="#20242e"/><circle cx="120" cy="100" r="7" fill="#20242e"/><circle cx="82.1" cy="97.9" r="2.1" fill="#fff"/><circle cx="122.1" cy="97.9" r="2.1" fill="#fff"/><path d="M94 118 L106 118 L100 126 Z" fill="#e8a8b8"/><path d="M100 126 q-6 10 -16 6 M100 126 q6 10 16 6" stroke="#20242e" stroke-width="2.5" fill="none" stroke-linecap="round"/><g stroke="#e6e9f2" stroke-width="2" stroke-linecap="round"><path d="M40 104 h22 M40 116 h22 M138 104 h22 M138 116 h22"/></g></svg>
