<svg xmlns="http://www.w3.org/2000/svg" viewBox="0 0 200 200" role="img" aria-label="Shiba dog"><rect width="200" height="200" fill="#2d1e4f"/><g fill="#7b5ea7" opacity="0.5"><circle cx="14" cy="14" r="3"/><circle cx="38" cy="14" r="3"/><circle cx="62" cy="14" r="3"/><circle cx="86" cy="14" r="3"/><circle cx="110" cy="14" r="3"/><circle cx="134" cy="14" r="3"/><circle cx="158" cy="14" r="3"/><circle cx="182" cy="14" r="3"/><circle cx="26" cy="38" r="3"/><circle cx="50" cy="38" r="3"/><circle cx="74" cy="38" r="3"/><circle cx="98" cy="38" r="3"/><circle cx="122" cy="38" r="3"/><circle cx="146" cy="38" r="3"/><circle cx="170" cy="38" r="3"/><circle cx="194" cy="38" r="3"/><circle cx="14" cy="62" r="3"/><circle cx="38" cy="62" r="3"/><circle cx="62" cy="62" r="3"/><circle cx="86" cy="62" r="3"/><circle cx="110" cy="62" r="3"/><circle cx="134" cy="62" r="3"/><circle cx="158" cy="62" r="3"/><circle cx="182" cy="62" r="3"/><circle cx="26" cy="86" r="3"/><circle cx="50" cy="86" r="3"/><circle cx="74" cy="86" r="3"/><circle cx="98" cy="86" r="3"/><circle cx="122" cy="86" r="3"/><circle cx="146" cy="86" r="3"/><circle cx="170" cy="86" r="3"/><circle cx="194" cy="86" r="3"/><circle cx="14" cy="110" r="3"/><circle cx="38" cy="110" r="3"/><circle cx="62" cy="110" r="3"/><circle cx="86" cy="110" r="3"/><circle cx="110" cy="110" r="3"/><circle cx="134" cy="110" r="3"/><circle cx="158" cy="110" r="3"/><circle cx="182" cy="110" r="3"/><circle cx="26" cy="134" r="3"/><circle cx="50" cy="134" r="3"/><circle cx="74" cy="134" r="3"/><circle cx="98" cy="134" r="3"/><circle cx="122" cy="134" r="3"/><circle cx="146" cy="134" r="3"/><circle cx="170" cy="134" r="3"/><circle cx="194" cy="134" r="3"/><circle cx="14" cy="158" r="3"/><circle cx="38" cy="158" r="3"/><circle cx="62" cy="158" r="3"/><circle cx="86" cy="158" r="3"/><circle cx="110" cy="158" r="3"/><circle cx="134" cy="158" r="3"/><circle cx="158" cy="158" r="3"/><circle cx="182" cy="158" r="3"/><circle cx="26" cy="182" r="3"/><circle cx="50" cy="182" r="3"/><circle cx="74" cy="182" r="3"/><circle cx="98" cy="182" r="3"/><circle cx="122" cy="182" r="3"/><circle cx="146" cy="182" r="3"/><circle cx="170" cy="182" r="3"/><circle cx="194" cy="182" r="3"/></g><circle cx="100" cy="102" r="76" fill="#000" opacity="0.14"/><path d="M54 82 L58 40 L90 62 Z" fill="#e0a35c"/><path d="M146 82 L142 40 L110 62 Z" fill="#e0a35c"/><circle cx="100" cy="110" r="54" fill="#e0a35c"/><path d="M100 164 a54 54 0 0 0 44 -84 q-22 6 -44 40 q-22 -34 -44 -40 a54 54 0 0 0 44 84z" fill="#f6e5c8"/><circle cx="78" cy="98" r="6" fill="#20242e"/><circle cx="122" cy="98" r="6" fill="#20242e"/><ellipse cx="100" cy="126" rx="9" ry="7" fill="#3a2c1e"/><path d="M100 133 q-8 10 -18 4 M100 133 q8 10 18 4" stroke="#3a2c1e" stroke-width="2.5" fill="none" stroke-linecap="round"/><circle cx="66" cy="118" r="8" fill="#e88f6a" opacity="0.5"/><circle cx="134" cy="118" r="8" fill="#e88f6a" opacity="0.5"/></svg>
