<svg xmlns="http://www.w3.org/2000/svg" viewBox="0 0 200 200" role="img" aria-label="Donut"><rect width="200" height="200" fill="#7a5230"/><g fill="#d9ae7e" opacity="0.5"><circle cx="14" cy="14" r="3"/><circle cx="38" cy="14" r="3"/><circle cx="62" cy="14" r="3"/><circle cx="86" cy="14" r="3"/><circle cx="110" cy="14" r="3"/><circle cx="134" cy="14" r="3"/><circle cx="158" cy="14" r="3"/><circle cx="182" cy="14" r="3"/><circle cx="26" cy="38" r="3"/><circle cx="50" cy="38" r="3"/><circle cx="74" cy="38" r="3"/><circle cx="98" cy="38" r="3"/><circle cx="122" cy="38" r="3"/><circle cx="146" cy="38" r="3"/><circle cx="170" cy="38" r="3"/><circle cx="194" cy="38" r="3"/><circle cx="14" cy="62" r="3"/><circle cx="38" cy="62" r="3"/><circle cx="62" cy="62" r="3"/><circle cx="86" cy="62" r="3"/><circle cx="110" cy="62" r="3"/><circle cx="134" cy="62" r="3"/><circle cx="158" cy="62" r="3"/><circle cx="182" cy="62" r="3"/><circle cx="26" cy="86" r="3"/><circle cx="50" cy="86" r="3"/><circle cx="74" cy="86" r="3"/><circle cx="98" cy="86" r="3"/><circle cx="122" cy="86" r="3"/><circle cx="146" cy="86" r="3"/><circle cx="170" cy="86" r="3"/><circle cx="194" cy="86" r="3"/><circle cx="14" cy="110" r="3"/><circle cx="38" cy="110" r="3"/><circle cx="62" cy="110" r="3"/><circle cx="86" cy="110" r="3"/><circle cx="110" cy="110" r="3"/><circle cx="134" cy="110" r="3"/><circle cx="158" cy="110" r="3"/><circle cx="182" cy="110" r="3"/><circle cx="26" cy="134" r="3"/><circle cx="50" cy="134" r="3"/><circle cx="74" cy="134" r="3"/><circle cx="98" cy="134" r="3"/><circle cx="122" cy="134" r="3"/><circle cx="146" cy="134" r="3"/><circle cx="170" cy="134" r="3"/><circle cx="194" cy="134" r="3"/><circle cx="14" cy="158" r="3"/><circle cx="38" cy="158" r="3"/><circle cx="62" cy="158" r="3"/><circle cx="86" cy="158" r="3"/><circle cx="110" cy="158" r="3"/><circle cx="134" cy="158" r="3"/><circle cx="158" cy="158" r="3"/><circle cx="182" cy="158" r="3"/><circle cx="26" cy="182" r="3"/><circle cx="50" cy="182" r="3"/><circle cx="74" cy="182" r="3"/><circle cx="98" cy="182" r="3"/><circle cx="122" cy="182" r="3"/><circle cx="146" cy="182" r="3"/><circle cx="170" cy="182" r="3"/><circle cx="194" cy="182" r="3"/></g><circle cx="100" cy="102" r="76" fill="#000" opacity="0.14"/><circle cx="100" cy="104" r="56" fill="#e8a86a"/><path d="M100 48 a56 56 0 0 1 0 112 a56 56 0 0 1 0 -112z M100 78 q26 2 28 26 q-4 22 -28 20 q-26 -4 -26 -22 q2 -20 26 -24z" fill="#e87ba8" fill-rule="evenodd"/><circle cx="100" cy="104" r="17" fill="#000" opacity="0.4"/><g stroke-width="4" stroke-linecap="round"><path d="M70 84 l10 -6" stroke="#fff"/><path d="M120 72 l10 4" stroke="#f2c73a"/><path d="M136 116 l10 -6" stroke="#4aae4a"/><path d="M76 136 l10 6" stroke="#3a78d8"/><path d="M116 142 l8 -8" stroke="#fff"/></g></svg>
