<svg xmlns="http://www.w3.org/2000/svg" viewBox="0 0 200 200" role="img" aria-label="Scenic landscape"><defs><linearGradient id="p6sky" x1="0" y1="0" x2="0" y2="1"><stop offset="0" stop-color="#fcd0b0"/><stop offset="0.5" stop-color="#e78f8f"/><stop offset="1" stop-color="#6e3f6e"/></linearGradient><linearGradient id="p6wat" x1="0" y1="0" x2="0" y2="1"><stop offset="0" stop-color="#b07f9a"/><stop offset="1" stop-color="#4a2f4a"/></linearGradient><linearGradient id="p6rid" x1="0" y1="0" x2="0" y2="1"><stop offset="0" stop-color="#7d4f6e"/><stop offset="1" stop-color="#4a2f45"/></linearGradient><radialGradient id="p6sun" cx="0.5" cy="0.5" r="0.5"><stop offset="0" stop-color="#ffe0e0"/><stop offset="0.6" stop-color="#ffe0e0" stop-opacity="0.85"/><stop offset="1" stop-color="#ffe0e0" stop-opacity="0"/></radialGradient></defs><rect width="200" height="200" fill="url(#p6sky)"/><g fill="#ffe0e0" opacity="0.7"><circle cx="101" cy="38" r="0.8"/><circle cx="19" cy="9" r="0.8"/><circle cx="129" cy="50" r="0.8"/><circle cx="164" cy="8" r="1.3"/><circle cx="137" cy="18" r="0.8"/><circle cx="189" cy="29" r="0.8"/><circle cx="63" cy="28" r="1.3"/><circle cx="182" cy="2" r="0.8"/><circle cx="13" cy="57" r="0.8"/><circle cx="129" cy="33" r="1.3"/><circle cx="150" cy="47" r="1.3"/><circle cx="128" cy="89" r="0.8"/><circle cx="178" cy="46" r="0.8"/><circle cx="30" cy="48" r="1.3"/><circle cx="63" cy="63" r="0.8"/><circle cx="181" cy="70" r="1.3"/><circle cx="88" cy="40" r="0.8"/><circle cx="13" cy="59" r="1.3"/></g><g fill="#e78f8f" opacity="0.4"><ellipse cx="94" cy="67" rx="34" ry="5"/><ellipse cx="60" cy="61" rx="21" ry="6"/><ellipse cx="107" cy="33" rx="20" ry="5"/></g><path d="M0 120 L51 117 L78 128 L108 130 L138 123 L182 116 L200 118 L200 200 L0 200 Z" fill="url(#p6rid)" opacity="0.65"/><path d="M0 142 L50 146 L95 140 L144 145 L179 134 L200 149 L200 200 L0 200 Z" fill="#7d4f6e"/><path d="M0 164 L35 175 L86 157 L135 172 L168 174 L197 155 L200 165 L200 200 L0 200 Z" fill="#4a2f45"/></svg>
