<svg xmlns="http://www.w3.org/2000/svg" viewBox="0 0 200 200" role="img" aria-label="Penguin"><rect width="200" height="200" fill="#7a5230"/><g fill="#d9ae7e" opacity="0.45"><rect x="0" y="0" width="50" height="50"/><rect x="100" y="0" width="50" height="50"/><rect x="50" y="50" width="50" height="50"/><rect x="150" y="50" width="50" height="50"/><rect x="0" y="100" width="50" height="50"/><rect x="100" y="100" width="50" height="50"/><rect x="50" y="150" width="50" height="50"/><rect x="150" y="150" width="50" height="50"/></g><circle cx="100" cy="102" r="76" fill="#000" opacity="0.14"/><ellipse cx="100" cy="116" rx="46" ry="54" fill="#2b3240"/><ellipse cx="100" cy="124" rx="30" ry="40" fill="#f2f4f8"/><circle cx="86" cy="92" r="6" fill="#fff"/><circle cx="114" cy="92" r="6" fill="#fff"/><circle cx="86" cy="92" r="3" fill="#20242e"/><circle cx="114" cy="92" r="3" fill="#20242e"/><path d="M92 104 L108 104 L100 114 Z" fill="#e8952f"/><path d="M58 108 q-12 22 2 40 M142 108 q12 22 -2 40" stroke="#2b3240" stroke-width="10" fill="none" stroke-linecap="round"/><path d="M84 168 h12 l-6 8 z M104 168 h12 l-6 8 z" fill="#e8952f"/></svg>
