<svg xmlns="http://www.w3.org/2000/svg" viewBox="0 0 200 200" role="img" aria-label="Scenic landscape"><defs><linearGradient id="p164sky" x1="0" y1="0" x2="0" y2="1"><stop offset="0" stop-color="#bfe6ea"/><stop offset="0.5" stop-color="#79b9c4"/><stop offset="1" stop-color="#356070"/></linearGradient><linearGradient id="p164wat" x1="0" y1="0" x2="0" y2="1"><stop offset="0" stop-color="#5f9aa6"/><stop offset="1" stop-color="#204450"/></linearGradient><linearGradient id="p164rid" x1="0" y1="0" x2="0" y2="1"><stop offset="0" stop-color="#3f7080"/><stop offset="1" stop-color="#204450"/></linearGradient><radialGradient id="p164sun" cx="0.5" cy="0.5" r="0.5"><stop offset="0" stop-color="#e6fbff"/><stop offset="0.6" stop-color="#e6fbff" stop-opacity="0.85"/><stop offset="1" stop-color="#e6fbff" stop-opacity="0"/></radialGradient></defs><rect width="200" height="200" fill="url(#p164sky)"/><g fill="#e6fbff" opacity="0.7"><circle cx="130" cy="71" r="0.8"/><circle cx="16" cy="87" r="0.8"/><circle cx="73" cy="56" r="0.8"/><circle cx="106" cy="62" r="0.8"/><circle cx="38" cy="15" r="0.8"/><circle cx="182" cy="11" r="0.8"/><circle cx="130" cy="43" r="0.8"/><circle cx="47" cy="41" r="0.8"/><circle cx="170" cy="27" r="1.3"/><circle cx="142" cy="55" r="0.8"/><circle cx="25" cy="16" r="1.3"/><circle cx="40" cy="73" r="0.8"/><circle cx="196" cy="37" r="0.8"/><circle cx="176" cy="11" r="1.3"/><circle cx="65" cy="90" r="0.8"/><circle cx="78" cy="80" r="1.3"/><circle cx="76" cy="52" r="1.3"/><circle cx="161" cy="18" r="1.3"/></g><circle cx="122" cy="68" r="26" fill="#e6fbff" opacity="0.92"/><circle cx="132.4" cy="62.8" r="26" fill="url(#p164sky)" opacity="0.9"/><g fill="#79b9c4" opacity="0.4"><ellipse cx="51" cy="45" rx="24" ry="5"/><ellipse cx="102" cy="37" rx="34" ry="8"/><ellipse cx="64" cy="56" rx="28" ry="8"/></g><rect x="0" y="120" width="200" height="80" fill="url(#p164wat)"/><g stroke="#e6fbff" stroke-width="1.4" opacity="0.5" stroke-linecap="round"><path d="M30 134 h44 M100 142 h56 M50 156 h34 M120 168 h48 M70 180 h30"/></g></svg>
