<svg xmlns="http://www.w3.org/2000/svg" viewBox="0 0 200 200" role="img" aria-label="Olive grove on a hillside"><defs><linearGradient id="og-sky" x1="0" y1="0" x2="0" y2="1"><stop offset="0" stop-color="#f4e6bf"/><stop offset="0.5" stop-color="#e8d59a"/><stop offset="1" stop-color="#cdd28a"/></linearGradient><linearGradient id="og-hill" x1="0" y1="0" x2="0" y2="1"><stop offset="0" stop-color="#a7b463"/><stop offset="1" stop-color="#7c8f45"/></linearGradient><radialGradient id="og-sun" cx="0.5" cy="0.5" r="0.5"><stop offset="0" stop-color="#fff6df"/><stop offset="0.6" stop-color="#ffe9b0"/><stop offset="1" stop-color="#ffe9b0" stop-opacity="0"/></radialGradient></defs><rect width="200" height="200" fill="url(#og-sky)"/><circle cx="150" cy="52" r="28" fill="url(#og-sun)"/><circle cx="150" cy="52" r="13" fill="#fff3d4"/><path d="M0 132 Q60 112 120 128 T200 122 V200 H0 Z" fill="url(#og-hill)"/><path d="M0 156 Q80 142 200 158 V200 H0 Z" fill="#6b7d3c" opacity="0.85"/><g stroke="#5c4326" stroke-width="4" stroke-linecap="round"><path d="M46 158 V128"/><path d="M100 168 V132"/><path d="M154 160 V130"/></g><ellipse cx="46" cy="116" rx="26" ry="22" fill="#8ba24f"/><ellipse cx="46" cy="112" rx="18" ry="14" fill="#a6bb66"/><ellipse cx="100" cy="118" rx="30" ry="25" fill="#7f9646"/><ellipse cx="100" cy="113" rx="20" ry="15" fill="#9db35d"/><ellipse cx="154" cy="116" rx="25" ry="21" fill="#8ba24f"/><ellipse cx="154" cy="112" rx="16" ry="12" fill="#a6bb66"/><g fill="#3c5228"><circle cx="40" cy="118" r="2.4"/><circle cx="54" cy="110" r="2.4"/><circle cx="96" cy="122" r="2.6"/><circle cx="108" cy="112" r="2.6"/><circle cx="150" cy="118" r="2.4"/><circle cx="160" cy="110" r="2.4"/></g></svg>
